<?xml version="1.0" encoding="utf-8"?>
<!-- Generator: Adobe Illustrator 16.0.0, SVG Export Plug-In . SVG Version: 6.00 Build 0)  -->
<!DOCTYPE svg PUBLIC "-//W3C//DTD SVG 1.1//EN" "http://www.w3.org/Graphics/SVG/1.1/DTD/svg11.dtd">
<svg version="1.1" id="Layer_1" xmlns="http://www.w3.org/2000/svg" xmlns:xlink="http://www.w3.org/1999/xlink" x="0px" y="0px"
	 width="181.531px" height="55.118px" viewBox="0 0 181.531 55.118" enable-background="new 0 0 181.531 55.118"
	 xml:space="preserve">
<g>
	<path d="M0,0.001h14.292v55.117H0V0.001z"/>
	<g>
		<polygon points="142.942,55.117 151.075,43.5 154.273,38.503 154.417,38.729 162.448,27.257 144.136,0.248 
			127.265,0.248 145.376,27.085 126.479,55.117 		"/>
		<polygon points="166.165,21.946 181.531,0 164.429,0 158.075,10.013 		"/>
		<polygon points="165.738,32.108 157.597,43.736 164.822,55.117 181.337,55.117 		"/>
	</g>
	<g>
		<polygon points="83.577,21.101 83.577,33.612 119.445,33.612 123.466,27.085 119.82,21.101 		"/>
		<path d="M116.784,13.154l-8.685-12.907H83.577v12.818C94.387,13.08,116.784,13.154,116.784,13.154z"/>
		<path d="M83.577,42.354v12.744l23.84,0.019l8.583-12.803C115.999,42.313,93.704,42.389,83.577,42.354z"/>
	</g>
	<g>
		<path d="M55.077,42.313c-6.359-0.111-11.359-5.517-11.359-14.615c0-8.44,4.392-14.581,9.748-14.624
			c1.904-0.018,7.02-0.012,12.827,0.002V0.248H48.504C37.326,0.376,28.294,12.652,28.294,27.699
			c0,15.047,9.031,27.256,20.209,27.384v0.006l17.788,0.015V42.362C61.438,42.362,57.143,42.35,55.077,42.313z"/>
	</g>
</g>
</svg>
