<?xml version="1.0" encoding="utf-8"?>
<!-- Generator: Adobe Illustrator 16.0.0, SVG Export Plug-In . SVG Version: 6.00 Build 0)  -->
<!DOCTYPE svg PUBLIC "-//W3C//DTD SVG 1.1//EN" "http://www.w3.org/Graphics/SVG/1.1/DTD/svg11.dtd">
<svg version="1.1" id="Layer_1" xmlns="http://www.w3.org/2000/svg" xmlns:xlink="http://www.w3.org/1999/xlink" x="0px" y="0px"
	 width="270px" height="270px" viewBox="0 0 270 270" enable-background="new 0 0 270 270" xml:space="preserve">
<path fill="#0B53D3" d="M270,250.157c0,10.959-8.884,19.843-19.843,19.843H19.843C8.884,270,0,261.116,0,250.157V19.842
	C0,8.884,8.884,0,19.843,0h230.314C261.116,0,270,8.884,270,19.842V250.157z"/>
<g>
	<g>
		<polygon fill="#FFFFFF" points="203.555,123.48 235.093,78.432 199.987,78.432 186.947,98.985 		"/>
		<polygon fill="#FFFFFF" points="155.883,191.568 172.576,167.726 179.143,157.466 179.435,157.93 195.923,134.381 158.334,78.94 
			123.701,78.94 160.876,134.03 122.082,191.568 		"/>
		<polygon fill="#FFFFFF" points="202.678,144.341 185.964,168.208 200.795,191.568 234.693,191.568 		"/>
	</g>
	<g>
		<polygon fill="#FFFFFF" points="34.908,121.742 34.908,146.983 107.273,146.983 115.379,133.815 108.024,121.742 		"/>
		<path fill="#FFFFFF" d="M101.905,105.71L84.382,79.671H34.908v26.039C56.715,105.738,101.905,105.71,101.905,105.71z"/>
		<path fill="#FFFFFF" d="M34.908,164.538v25.791h48.097l17.312-25.791C100.317,164.538,55.339,164.609,34.908,164.538z"/>
	</g>
</g>
</svg>
